<svg width="960" height="540" viewBox="0 0 960 540" xmlns="http://www.w3.org/2000/svg" role="img" aria-labelledby="title desc">
  <title id="title">Knowledge base illustration</title>
  <desc id="desc">Illustrated knowledge base hero with stats and empty state.</desc>
  <defs>
    <linearGradient id="bg2" x1="0%" y1="0%" x2="100%" y2="100%">
      <stop offset="0%" stop-color="#f5f7ff" />
      <stop offset="100%" stop-color="#e0edff" />
    </linearGradient>
  </defs>
  <rect width="960" height="540" rx="24" fill="url(#bg2)" />
  <rect x="80" y="60" width="500" height="320" rx="24" fill="#fff" stroke="#dbe4ff" stroke-width="3" />
  <rect x="600" y="100" width="260" height="200" rx="32" fill="#0f172a" />
  <rect x="80" y="420" width="800" height="80" rx="32" fill="none" stroke="#cbd5f5" stroke-width="2" stroke-dasharray="8 10" />
  <rect x="120" y="340" width="320" height="46" rx="23" fill="#f8fafc" stroke="#d7e3ff" />
  <circle cx="110" cy="120" r="18" fill="#38bdf8" />
  <text x="140" y="128" font-family="'Inter', sans-serif" font-size="20" fill="#1d4ed8">Docs &amp; Enablement</text>
  <text x="120" y="185" font-family="'Inter', sans-serif" font-size="38" font-weight="700" fill="#0f172a">Answer desk for the company</text>
  <text x="120" y="225" font-family="'Inter', sans-serif" font-size="20" fill="#475569">Filter every FAQ, policy, and onboarding playbook.</text>
  <text x="640" y="150" font-family="'Inter', sans-serif" font-size="48" fill="#f8fafc" font-weight="700">0</text>
  <text x="640" y="190" font-family="'Inter', sans-serif" font-size="20" fill="#cbd5f5">published articles</text>
  <rect x="640" y="230" width="180" height="50" rx="25" fill="#fff" />
  <text x="670" y="262" font-family="'Inter', sans-serif" font-size="18" fill="#1e3a8a">View FAQs</text>
  <text x="160" y="368" font-family="'Inter', sans-serif" font-size="18" fill="#94a3b8">Search articles...</text>
  <rect x="470" y="340" width="120" height="46" rx="23" fill="#2563eb" />
  <text x="505" y="369" font-family="'Inter', sans-serif" font-size="18" fill="#fff">Search</text>
  <text x="180" y="468" font-family="'Inter', sans-serif" font-size="20" fill="#94a3b8">No articles found. Clear filters or try another keyword.</text>
</svg>
